<svg xmlns="http://www.w3.org/2000/svg" version="1.1" xmlns:xlink="http://www.w3.org/1999/xlink" xmlns:svgjs="http://svgjs.dev/svgjs" width="1000" height="1000" viewBox="0 0 1000 1000"><rect width="1000" height="1000" fill="#000000"></rect><g transform="matrix(0.7,0,0,0.7,149.57575757575756,282.1265587044535)"><svg viewBox="0 0 396 247" data-background-color="#ffffff" preserveAspectRatio="xMidYMid meet" height="623" width="1000" xmlns="http://www.w3.org/2000/svg" xmlns:xlink="http://www.w3.org/1999/xlink"><g id="tight-bounds" transform="matrix(1,0,0,1,0.2400000000000091,-0.09999999999999432)"><svg viewBox="0 0 395.52 247.2" height="247.2" width="395.52"><g><svg viewBox="0 0 395.52 247.2" height="247.2" width="395.52"><g transform="matrix(1,0,0,1,0,93.97303370786517)"><svg viewBox="0 0 395.52 59.25393258426965" height="59.25393258426965" width="395.52"><g><svg viewBox="0 0 395.52 59.25393258426965" height="59.25393258426965" width="395.52"><g><svg viewBox="0 0 395.52000000000004 59.253932584269656" height="59.25393258426965" width="395.52"><g><svg viewBox="0 0 395.52000000000004 59.253932584269656" height="59.253932584269656" width="395.52000000000004"><g id="textblocktransform"><svg viewBox="0 0 395.52000000000004 59.253932584269656" height="59.253932584269656" width="395.52000000000004" id="textblock"><g><svg viewBox="0 0 395.52000000000004 59.253932584269656" height="59.253932584269656" width="395.52000000000004"><g transform="matrix(1,0,0,1,0,0)"><svg width="395.52000000000004" viewBox="-0.75 -40 361.4200134277344 55" height="59.253932584269656" data-palette-color="#ffffff"><path d="M9.65 0L3.25 0 3.25-24.8 8.95-24.8 9.55-20.15Q10.9-22.55 13.23-23.98 15.55-25.4 18.7-25.4L18.7-25.4 18.7-18.65 16.9-18.65Q14.8-18.65 13.15-18 11.5-17.35 10.58-15.75 9.65-14.15 9.65-11.3L9.65-11.3 9.65 0ZM34.65 0.6L34.65 0.6Q30.9 0.6 28-1 25.1-2.6 23.45-5.5 21.8-8.4 21.8-12.2L21.8-12.2Q21.8-16.05 23.42-19.05 25.05-22.05 27.92-23.73 30.8-25.4 34.7-25.4L34.7-25.4Q38.35-25.4 41.15-23.8 43.95-22.2 45.52-19.43 47.1-16.65 47.1-13.25L47.1-13.25Q47.1-12.7 47.07-12.1 47.05-11.5 47-10.85L47-10.85 28.15-10.85Q28.35-7.95 30.17-6.3 32-4.65 34.6-4.65L34.6-4.65Q36.55-4.65 37.87-5.53 39.2-6.4 39.85-7.8L39.85-7.8 46.35-7.8Q45.65-5.45 44.02-3.53 42.4-1.6 40.02-0.5 37.65 0.6 34.65 0.6ZM34.7-20.2L34.7-20.2Q32.35-20.2 30.55-18.88 28.75-17.55 28.25-14.85L28.25-14.85 40.6-14.85Q40.45-17.3 38.8-18.75 37.15-20.2 34.7-20.2ZM61.05 0.6L61.05 0.6Q57.85 0.6 55.8-0.43 53.75-1.45 52.75-3.15 51.75-4.85 51.75-6.9L51.75-6.9Q51.75-10.35 54.45-12.5 57.15-14.65 62.55-14.65L62.55-14.65 68.84-14.65 68.84-15.25Q68.84-17.8 67.4-19 65.95-20.2 63.8-20.2L63.8-20.2Q61.85-20.2 60.4-19.28 58.95-18.35 58.6-16.55L58.6-16.55 52.35-16.55Q52.6-19.25 54.17-21.25 55.75-23.25 58.25-24.33 60.75-25.4 63.85-25.4L63.85-25.4Q69.15-25.4 72.2-22.75 75.25-20.1 75.25-15.25L75.25-15.25 75.25 0 69.8 0 69.2-4Q68.09-2 66.12-0.7 64.15 0.6 61.05 0.6ZM62.5-4.4L62.5-4.4Q65.25-4.4 66.77-6.2 68.3-8 68.7-10.65L68.7-10.65 63.25-10.65Q60.7-10.65 59.6-9.73 58.5-8.8 58.5-7.45L58.5-7.45Q58.5-6 59.6-5.2 60.7-4.4 62.5-4.4ZM92.74 0.6L92.74 0.6Q89.24 0.6 86.49-1.1 83.74-2.8 82.14-5.75 80.54-8.7 80.54-12.45L80.54-12.45Q80.54-16.2 82.14-19.13 83.74-22.05 86.49-23.73 89.24-25.4 92.74-25.4L92.74-25.4Q95.54-25.4 97.64-24.35 99.74-23.3 101.04-21.4L101.04-21.4 101.04-36 107.44-36 107.44 0 101.74 0 101.04-3.55Q99.84-1.9 97.87-0.65 95.89 0.6 92.74 0.6ZM94.09-5L94.09-5Q97.19-5 99.17-7.08 101.14-9.15 101.14-12.4L101.14-12.4Q101.14-15.65 99.17-17.73 97.19-19.8 94.09-19.8L94.09-19.8Q91.04-19.8 89.04-17.75 87.04-15.7 87.04-12.45L87.04-12.45Q87.04-9.2 89.04-7.1 91.04-5 94.09-5ZM120.34 0L113.94 0 113.94-24.8 119.59-24.8 120.14-21.45Q121.34-23.25 123.31-24.33 125.29-25.4 127.89-25.4L127.89-25.4Q133.64-25.4 136.04-20.95L136.04-20.95Q137.39-23 139.66-24.2 141.94-25.4 144.64-25.4L144.64-25.4Q149.49-25.4 152.09-22.5 154.69-19.6 154.69-14L154.69-14 154.69 0 148.29 0 148.29-13.4Q148.29-16.6 147.06-18.3 145.84-20 143.29-20L143.29-20Q140.69-20 139.12-18.1 137.54-16.2 137.54-12.8L137.54-12.8 137.54 0 131.14 0 131.14-13.4Q131.14-16.6 129.89-18.3 128.64-20 126.04-20L126.04-20Q123.49-20 121.91-18.1 120.34-16.2 120.34-12.8L120.34-12.8 120.34 0ZM172.84 0.6L172.84 0.6Q169.09 0.6 166.19-1 163.29-2.6 161.64-5.5 159.99-8.4 159.99-12.2L159.99-12.2Q159.99-16.05 161.61-19.05 163.24-22.05 166.11-23.73 168.99-25.4 172.89-25.4L172.89-25.4Q176.54-25.4 179.34-23.8 182.14-22.2 183.71-19.43 185.29-16.65 185.29-13.25L185.29-13.25Q185.29-12.7 185.26-12.1 185.24-11.5 185.19-10.85L185.19-10.85 166.34-10.85Q166.54-7.95 168.36-6.3 170.19-4.65 172.79-4.65L172.79-4.65Q174.74-4.65 176.06-5.53 177.39-6.4 178.04-7.8L178.04-7.8 184.54-7.8Q183.84-5.45 182.21-3.53 180.59-1.6 178.21-0.5 175.84 0.6 172.84 0.6ZM172.89-20.2L172.89-20.2Q170.54-20.2 168.74-18.88 166.94-17.55 166.44-14.85L166.44-14.85 178.79-14.85Q178.64-17.3 176.99-18.75 175.34-20.2 172.89-20.2ZM214.63 0.6L214.63 0.6Q210.88 0.6 207.98-1 205.08-2.6 203.43-5.5 201.78-8.4 201.78-12.2L201.78-12.2Q201.78-16.05 203.41-19.05 205.03-22.05 207.91-23.73 210.78-25.4 214.68-25.4L214.68-25.4Q218.33-25.4 221.13-23.8 223.93-22.2 225.51-19.43 227.08-16.65 227.08-13.25L227.08-13.25Q227.08-12.7 227.06-12.1 227.03-11.5 226.98-10.85L226.98-10.85 208.13-10.85Q208.33-7.95 210.16-6.3 211.98-4.65 214.58-4.65L214.58-4.65Q216.53-4.65 217.86-5.53 219.18-6.4 219.83-7.8L219.83-7.8 226.33-7.8Q225.63-5.45 224.01-3.53 222.38-1.6 220.01-0.5 217.63 0.6 214.63 0.6ZM214.68-20.2L214.68-20.2Q212.33-20.2 210.53-18.88 208.73-17.55 208.23-14.85L208.23-14.85 220.58-14.85Q220.43-17.3 218.78-18.75 217.13-20.2 214.68-20.2ZM235.28 0L228.43 0 237.43-12.4 228.43-24.8 235.28-24.8 241.58-16 247.83-24.8 254.73-24.8 245.68-12.4 254.73 0 247.83 0 241.58-8.8 235.28 0ZM265.23 11L258.83 11 258.83-24.8 264.53-24.8 265.23-21.25Q266.43-22.9 268.4-24.15 270.38-25.4 273.53-25.4L273.53-25.4Q277.03-25.4 279.78-23.7 282.53-22 284.13-19.05 285.73-16.1 285.73-12.35L285.73-12.35Q285.73-8.6 284.13-5.68 282.53-2.75 279.78-1.07 277.03 0.6 273.53 0.6L273.53 0.6Q270.73 0.6 268.63-0.45 266.53-1.5 265.23-3.4L265.23-3.4 265.23 11ZM272.18-5L272.18-5Q275.23-5 277.23-7.05 279.23-9.1 279.23-12.35L279.23-12.35Q279.23-15.6 277.23-17.7 275.23-19.8 272.18-19.8L272.18-19.8Q269.08-19.8 267.1-17.73 265.13-15.65 265.13-12.4L265.13-12.4Q265.13-9.15 267.1-7.08 269.08-5 272.18-5ZM303.48 0.6L303.48 0.6Q299.73 0.6 296.83-1 293.93-2.6 292.28-5.5 290.63-8.4 290.63-12.2L290.63-12.2Q290.63-16.05 292.25-19.05 293.88-22.05 296.75-23.73 299.63-25.4 303.53-25.4L303.53-25.4Q307.18-25.4 309.98-23.8 312.78-22.2 314.35-19.43 315.93-16.65 315.93-13.25L315.93-13.25Q315.93-12.7 315.9-12.1 315.88-11.5 315.83-10.85L315.83-10.85 296.98-10.85Q297.18-7.95 299-6.3 300.83-4.65 303.43-4.65L303.43-4.65Q305.38-4.65 306.7-5.53 308.03-6.4 308.68-7.8L308.68-7.8 315.18-7.8Q314.48-5.45 312.85-3.53 311.23-1.6 308.85-0.5 306.48 0.6 303.48 0.6ZM303.53-20.2L303.53-20.2Q301.18-20.2 299.38-18.88 297.58-17.55 297.08-14.85L297.08-14.85 309.43-14.85Q309.28-17.3 307.63-18.75 305.98-20.2 303.53-20.2ZM327.72 0L321.32 0 321.32-24.8 327.02-24.8 327.62-20.15Q328.97-22.55 331.3-23.98 333.62-25.4 336.77-25.4L336.77-25.4 336.77-18.65 334.97-18.65Q332.87-18.65 331.22-18 329.57-17.35 328.65-15.75 327.72-14.15 327.72-11.3L327.72-11.3 327.72 0ZM356.52 0L352.17 0Q348.27 0 345.92-1.9 343.57-3.8 343.57-8.65L343.57-8.65 343.57-19.45 339.32-19.45 339.32-24.8 343.57-24.8 344.32-31.45 349.97-31.45 349.97-24.8 356.67-24.8 356.67-19.45 349.97-19.45 349.97-8.6Q349.97-6.8 350.75-6.13 351.52-5.45 353.42-5.45L353.42-5.45 356.52-5.45 356.52 0Z" opacity="1" transform="matrix(1,0,0,1,0,0)" fill="#ffffff" class="undefined-text-0" data-fill-palette-color="primary" id="text-0"></path></svg></g></svg></g></svg></g></svg></g></svg></g></svg></g></svg></g></svg></g><defs></defs></svg><rect width="395.52" height="247.2" fill="none" stroke="none" visibility="hidden"></rect></g></svg></g></svg>